<svg xmlns="http://www.w3.org/2000/svg" width="60" height="65" viewBox="0 0 60 65">
  <path d="M500.046,132.9v44.15a8.491,8.491,0,0,1-8.43,8.552l-37.155.067v3.679l-8.943-7.249,8.943-7.253v2.88l34.181-.051a5.177,5.177,0,0,0,3.7-1.554,5.323,5.323,0,0,0,1.532-3.751,5.268,5.268,0,0,0-5.23-5.3H452.059a3.863,3.863,0,0,1,.25-7.312h15.345a5.228,5.228,0,0,0,3.735-1.569,5.382,5.382,0,0,0,1.547-3.789,5.32,5.32,0,0,0-5.282-5.358H452.309a3.358,3.358,0,0,1,0-6.635l32.888-.052v4.928l8.942-9.709-8.942-9.715v3.856l-40.434.039a3.668,3.668,0,1,1-.188-7.081l47.043-.319A8.491,8.491,0,0,1,500.046,132.9Z" transform="translate(-440.046 -124.345)" fill="#ffc81a"/>
</svg>
