<svg id="Component_4_1" data-name="Component 4 – 1" xmlns="http://www.w3.org/2000/svg" width="78.125" height="83.333" viewBox="0 0 78.125 83.333">
  <defs>
    <style>
      .cls-1 {
        fill: #fff;
      }
    </style>
  </defs>
  <path id="Path_1310" data-name="Path 1310" class="cls-1" d="M518.171,135.308v56.6a10.97,10.97,0,0,1-10.976,10.965l-48.379.086v4.717l-11.645-9.294,11.645-9.3v3.692l44.506-.066a6.8,6.8,0,1,0,0-13.6H455.687a4.929,4.929,0,0,1,.326-9.374h19.98a6.869,6.869,0,1,0,0-13.739h-19.98a4.3,4.3,0,0,1,0-8.506l42.822-.067v6.318l11.643-12.448-11.643-12.456v4.944l-52.649.05c-3.327.572-6.092-1.927-6.14-4.416-.048-2.47,2.574-5.055,5.895-4.662l61.253-.408A10.969,10.969,0,0,1,518.171,135.308Z" transform="translate(-440.046 -124.345)"/>
  <path id="Path_1311" data-name="Path 1311" class="cls-1" d="M750.264,183.038" transform="translate(-700.519 -173.606)"/>
</svg>
